<svg id="레이어_1" xmlns="http://www.w3.org/2000/svg" xmlns:xlink="http://www.w3.org/1999/xlink" viewBox="0 0 165.25 78.78"><defs><linearGradient id="GradientFill_1" x1="161.12" y1="355.82" x2="263.26" y2="229.69" gradientUnits="userSpaceOnUse"><stop offset="0" stop-color="#dda426"></stop><stop offset="0.45" stop-color="#ffefca"></stop><stop offset="1" stop-color="#dda426"></stop></linearGradient></defs><path d="M282.36,252.71H143.08a13,13,0,0,0-13,13v52.85a13,13,0,0,0,13,13H282.36a13,13,0,0,0,13-13V265.68a13,13,0,0,0-13-13Z" transform="translate(-130.09 -252.71)" style="fill:#e60012"></path><path d="M282.36,254.66a11,11,0,0,1,11,11v52.85a11,11,0,0,1-11,11H143.08a11,11,0,0,1-11-11V265.68a11,11,0,0,1,11-11Z" transform="translate(-130.09 -252.71)" style="fill:url(#GradientFill_1)"></path><path d="M152.81,286.3a1.12,1.12,0,0,0-1.12,1.11V300a1.11,1.11,0,0,0,1.12,1.1h22.81a1.11,1.11,0,0,0,1.12-1.1V287.41a1.12,1.12,0,0,0-1.12-1.11Zm81.56,11.63a4,4,0,1,1,4-4,4,4,0,0,1-4,4ZM249.8,286.3a1.13,1.13,0,0,0-1.12,1.11V300a1.11,1.11,0,0,0,1.12,1.1h22.81a1.1,1.1,0,0,0,1.11-1.1V287.41a1.11,1.11,0,0,0-1.11-1.11Zm23.92,37.57v-16a1.11,1.11,0,0,0-1.11-1.13h-28a4,4,0,0,1-4-4v-18a4,4,0,0,1,4-4h33.11a4,4,0,0,1,4,4v34.2l-8,4.93ZM196.11,286.3a1.12,1.12,0,0,0-1.12,1.11V300a1.11,1.11,0,0,0,1.12,1.1h22.81a1.12,1.12,0,0,0,1.13-1.1V287.41a1.13,1.13,0,0,0-1.13-1.11Zm28,20.41H191a4,4,0,0,1-4-4V268.51l8-4.93v16.05a1.11,1.11,0,0,0,1.12,1.11h28a4,4,0,0,1,4,4v18a4,4,0,0,1-4,4Zm-43.31,0h-33.1a4,4,0,0,1-4-4V268.51l8-4.93v16.05a1.11,1.11,0,0,0,1.12,1.11h28a4,4,0,0,1,4,4v18a4,4,0,0,1-4,4Z" transform="translate(-130.09 -252.71)" style="fill:#b3a89d"></path><path d="M237.56,293.91a3.2,3.2,0,1,1-3.19-3.2,3.2,3.2,0,0,1,3.19,3.2Zm-60,6.13a1.94,1.94,0,0,1-1.95,1.94H152.81a2,2,0,0,1-1.95-1.94V287.41a2,2,0,0,1,1.95-1.94h22.81a2,2,0,0,1,1.95,1.94V300Zm3.24-18.47h-28a1.94,1.94,0,0,1-1.95-1.94V265.06l-6.3,3.92v33.74a3.15,3.15,0,0,0,3.15,3.16h33.1a3.15,3.15,0,0,0,3.15-3.16v-18a3.16,3.16,0,0,0-3.16-3.17ZM220.87,300a1.94,1.94,0,0,1-1.94,1.94H196.12a2,2,0,0,1-2-1.94V287.41a2,2,0,0,1,2-1.94h22.81a2,2,0,0,1,1.94,1.94V300Zm3.25-18.47h-28a2,2,0,0,1-2-1.94V265.06l-6.3,3.92v33.74a3.15,3.15,0,0,0,3.15,3.16h33.11a3.15,3.15,0,0,0,3.15-3.16v-18a3.15,3.15,0,0,0-3.15-3.17Zm23.73,5.84a2,2,0,0,1,2-1.94h22.81a2,2,0,0,1,1.95,1.94V300a2,2,0,0,1-1.95,1.94H249.8a1.94,1.94,0,0,1-2-1.94V287.41Zm-3.25,18.47h28a2,2,0,0,1,1.95,2v14.55l6.31-3.9V284.74a3.16,3.16,0,0,0-3.15-3.17H244.61a3.15,3.15,0,0,0-3.15,3.17v18a3.14,3.14,0,0,0,3.14,3.16Z" transform="translate(-130.09 -252.71)" style="fill:#e60012"></path></svg>